<svg width="636" height="62" viewBox="0 0 636 62" fill="none" xmlns="http://www.w3.org/2000/svg">
<path d="M0.500031 24.5L222.383 24.5" stroke="url(#paint0_linear_5403_47409)"/>
<path d="M635.761 24.5H413.879" stroke="url(#paint1_linear_5403_47409)"/>
<g filter="url(#filter0_d_5403_47409)">
<path d="M222.146 24.5L234.434 9.5H401.728L415.814 24.5L401.728 39.5H234.434L222.146 24.5Z" fill="#231E4E" fill-opacity="0.5" stroke="#9990EA"/>
<path d="M228.157 24L237.942 12.5H398.838L409.809 24L398.838 35.5H237.942L228.157 24Z" fill="#231E4E" stroke="#9990EA"/>
<path d="M276.071 26.924C276.071 27.54 275.843 28.072 275.387 28.52C274.931 28.96 274.343 29.18 273.623 29.18C272.695 29.18 271.855 28.728 271.103 27.824L271.955 26.864C272.155 27.08 272.319 27.248 272.447 27.368C272.575 27.48 272.755 27.596 272.987 27.716C273.227 27.828 273.475 27.884 273.731 27.884C273.987 27.884 274.207 27.8 274.391 27.632C274.583 27.464 274.679 27.236 274.679 26.948C274.679 26.7 274.567 26.48 274.343 26.288C274.119 26.088 273.711 25.824 273.119 25.496C271.999 24.88 271.439 24.176 271.439 23.384C271.439 22.752 271.655 22.256 272.087 21.896C272.527 21.536 273.059 21.356 273.683 21.356C274.299 21.356 274.991 21.648 275.759 22.232L275.099 23.312C274.507 22.872 274.015 22.652 273.623 22.652C273.423 22.652 273.243 22.704 273.083 22.808C272.923 22.912 272.843 23.068 272.843 23.276C272.843 23.404 272.879 23.524 272.951 23.636C273.023 23.74 273.087 23.816 273.143 23.864C273.207 23.904 273.339 23.98 273.539 24.092C273.747 24.196 273.887 24.272 273.959 24.32C274.655 24.72 275.179 25.116 275.531 25.508C275.891 25.9 276.071 26.372 276.071 26.924ZM286.422 25.268C286.422 26.396 286.026 27.332 285.234 28.076C284.442 28.812 283.474 29.18 282.33 29.18C281.138 29.18 280.158 28.812 279.39 28.076C278.622 27.34 278.238 26.404 278.238 25.268C278.238 24.14 278.634 23.208 279.426 22.472C280.218 21.728 281.186 21.356 282.33 21.356C283.522 21.356 284.502 21.724 285.27 22.46C286.038 23.196 286.422 24.132 286.422 25.268ZM285.018 25.268C285.018 24.516 284.766 23.9 284.262 23.42C283.758 22.94 283.114 22.7 282.33 22.7C281.578 22.7 280.942 22.944 280.422 23.432C279.902 23.912 279.642 24.524 279.642 25.268C279.642 26.02 279.894 26.636 280.398 27.116C280.902 27.596 281.546 27.836 282.33 27.836C283.082 27.836 283.718 27.596 284.238 27.116C284.758 26.628 285.018 26.012 285.018 25.268ZM290.782 22.82V24.632H291.622C291.982 24.632 292.298 24.544 292.57 24.368C292.85 24.192 292.99 23.98 292.99 23.732C292.99 23.444 292.878 23.22 292.654 23.06C292.43 22.9 292.118 22.82 291.718 22.82H290.782ZM292.87 25.604C293.79 26.66 294.638 27.56 295.414 28.304C296.03 28.896 296.61 29.344 297.154 29.648C297.698 29.952 298.282 30.16 298.906 30.272C299.066 30.296 299.222 30.316 299.374 30.332C299.526 30.348 299.662 30.36 299.782 30.368C299.91 30.384 300.038 30.388 300.166 30.38C300.302 30.38 300.41 30.376 300.49 30.368C300.578 30.368 300.678 30.356 300.79 30.332C300.91 30.316 300.994 30.304 301.042 30.296C301.098 30.296 301.178 30.28 301.282 30.248C301.394 30.216 301.462 30.196 301.486 30.188C301.51 30.18 301.574 30.16 301.678 30.128C301.782 30.096 301.838 30.08 301.846 30.08L302.17 30.824C300.698 31.536 299.062 31.572 297.262 30.932C296.438 30.652 295.558 30.128 294.622 29.36C293.686 28.6 292.566 27.428 291.262 25.844H290.782V29H289.438V21.536H291.982C292.694 21.536 293.266 21.74 293.698 22.148C294.138 22.556 294.358 23.084 294.358 23.732C294.358 24.132 294.218 24.496 293.938 24.824C293.666 25.152 293.31 25.412 292.87 25.604ZM299.585 21.536H301.817V22.832H299.585V29H298.241V22.832H296.009V21.536H298.241V19.4H299.585V21.536ZM305.625 22.832V24.26H308.181V25.556H305.625V27.704H308.709V29H304.281V21.536H308.517V22.832H305.625ZM311.685 29V21.536H314.157C315.565 21.536 316.689 21.864 317.529 22.52C318.377 23.168 318.801 24.084 318.801 25.268C318.801 26.412 318.373 27.32 317.517 27.992C316.669 28.664 315.549 29 314.157 29H311.685ZM313.029 22.832V27.704H314.277C315.205 27.704 315.941 27.488 316.485 27.056C317.037 26.624 317.313 26.028 317.313 25.268C317.313 24.468 317.041 23.864 316.497 23.456C315.961 23.04 315.221 22.832 314.277 22.832H313.029ZM327.537 21.536H329.769V22.832H327.537V29H326.193V22.832H323.961V21.536H326.193V19.4H327.537V21.536ZM339.574 25.268C339.574 26.396 339.178 27.332 338.386 28.076C337.594 28.812 336.626 29.18 335.482 29.18C334.29 29.18 333.31 28.812 332.542 28.076C331.774 27.34 331.39 26.404 331.39 25.268C331.39 24.14 331.786 23.208 332.578 22.472C333.37 21.728 334.338 21.356 335.482 21.356C336.674 21.356 337.654 21.724 338.422 22.46C339.19 23.196 339.574 24.132 339.574 25.268ZM338.17 25.268C338.17 24.516 337.918 23.9 337.414 23.42C336.91 22.94 336.266 22.7 335.482 22.7C334.73 22.7 334.094 22.944 333.574 23.432C333.054 23.912 332.794 24.524 332.794 25.268C332.794 26.02 333.046 26.636 333.55 27.116C334.054 27.596 334.698 27.836 335.482 27.836C336.234 27.836 336.87 27.596 337.39 27.116C337.91 26.628 338.17 26.012 338.17 25.268ZM342.59 29V21.536H345.062C346.47 21.536 347.594 21.864 348.434 22.52C349.282 23.168 349.706 24.084 349.706 25.268C349.706 26.412 349.278 27.32 348.422 27.992C347.574 28.664 346.454 29 345.062 29H342.59ZM343.934 22.832V27.704H345.182C346.11 27.704 346.846 27.488 347.39 27.056C347.942 26.624 348.218 26.028 348.218 25.268C348.218 24.468 347.946 23.864 347.402 23.456C346.866 23.04 346.126 22.832 345.182 22.832H343.934ZM353.618 26.432H356.87C356.854 25.672 356.758 25.036 356.582 24.524C356.414 24.004 356.226 23.628 356.018 23.396C355.81 23.164 355.55 22.952 355.238 22.76C354.75 23.056 354.362 23.468 354.074 23.996C353.794 24.524 353.642 25.336 353.618 26.432ZM356.87 27.728H353.618V29H352.274V26.84C352.274 25.416 352.53 24.228 353.042 23.276C353.554 22.324 354.286 21.636 355.238 21.212C356.19 21.636 356.922 22.324 357.434 23.276C357.954 24.228 358.214 25.416 358.214 26.84V29H356.87V27.728ZM363.532 26.012V29H362.188V26.012L359.5 21.536H361.072L362.86 24.536L364.648 21.536H366.22L363.532 26.012Z" fill="white"/>
</g>
<defs>
<filter id="filter0_d_5403_47409" x="202.934" y="-7.09087" width="232.133" height="68.1328" filterUnits="userSpaceOnUse" color-interpolation-filters="sRGB">
<feFlood flood-opacity="0" result="BackgroundImageFix"/>
<feColorMatrix in="SourceAlpha" type="matrix" values="0 0 0 0 0 0 0 0 0 0 0 0 0 0 0 0 0 0 127 0" result="hardAlpha"/>
<feOffset dy="2.47552"/>
<feGaussianBlur stdDeviation="9.28319"/>
<feComposite in2="hardAlpha" operator="out"/>
<feColorMatrix type="matrix" values="0 0 0 0 0 0 0 0 0 0 0 0 0 0 0 0 0 0 0.3 0"/>
<feBlend mode="normal" in2="BackgroundImageFix" result="effect1_dropShadow_5403_47409"/>
<feBlend mode="normal" in="SourceGraphic" in2="effect1_dropShadow_5403_47409" result="shape"/>
</filter>
<linearGradient id="paint0_linear_5403_47409" x1="222.383" y1="23.0168" x2="0.499991" y2="23.0168" gradientUnits="userSpaceOnUse">
<stop stop-color="#887DEC"/>
<stop offset="0.447921" stop-color="#887DEC"/>
<stop offset="1" stop-color="#6B63B5" stop-opacity="0"/>
</linearGradient>
<linearGradient id="paint1_linear_5403_47409" x1="413.879" y1="25.9832" x2="635.761" y2="25.9832" gradientUnits="userSpaceOnUse">
<stop stop-color="#887DEC"/>
<stop offset="0.447921" stop-color="#887DEC"/>
<stop offset="1" stop-color="#6B63B5" stop-opacity="0"/>
</linearGradient>
</defs>
</svg>
